<svg width="14" height="14" viewBox="0 0 14 14" fill="none" xmlns="http://www.w3.org/2000/svg">
<path fill-rule="evenodd" clip-rule="evenodd" d="M7.12498 1.47696C7.12498 1.20081 6.90112 0.976956 6.62498 0.976956C6.34884 0.976956 6.12498 1.20081 6.12498 1.47696L6.12498 8.73668L3.64494 6.25664C3.48873 6.10043 3.23546 6.10043 3.07925 6.25664C2.92304 6.41285 2.92304 6.66611 3.07925 6.82232L6.39107 10.1341C6.54728 10.2904 6.80055 10.2904 6.95676 10.1341L10.2686 6.82232C10.4248 6.66611 10.4248 6.41285 10.2686 6.25664C10.1124 6.10043 9.8591 6.10043 9.7029 6.25664L7.12498 8.83455L7.12498 1.47696ZM1.375 10.1137C1.59591 10.1137 1.775 10.2928 1.775 10.5137V11.5684C1.775 11.6988 1.84355 11.8566 2.02688 11.9941C2.21241 12.1333 2.48293 12.223 2.78125 12.223H11.2188C11.5171 12.223 11.7876 12.1333 11.9731 11.9941C12.1564 11.8566 12.225 11.6988 12.225 11.5684V10.5137C12.225 10.2928 12.4041 10.1137 12.625 10.1137C12.8459 10.1137 13.025 10.2928 13.025 10.5137V11.5684C13.025 11.9974 12.7972 12.376 12.4531 12.6341C12.1112 12.8906 11.6664 13.023 11.2188 13.023H2.78125C2.33365 13.023 1.8888 12.8906 1.54688 12.6341C1.20276 12.376 0.975 11.9974 0.975 11.5684V10.5137C0.975 10.2928 1.15409 10.1137 1.375 10.1137Z" fill="white"/>
</svg>
